<svg xmlns="http://www.w3.org/2000/svg" xmlns:xlink="http://www.w3.org/1999/xlink" zoomAndPan="magnify" preserveAspectRatio="xMidYMid meet" version="1.0" viewBox="59.76 110.62 255.03 149.87"><defs><g/><clipPath id="9e38f5e740"><path d="M 138.484375 110.621094 L 236.734375 110.621094 L 236.734375 204.371094 L 138.484375 204.371094 Z M 138.484375 110.621094 " clip-rule="nonzero"/></clipPath></defs><g clip-path="url(#9e38f5e740)"><path fill="#d6ad60" d="M 187.609375 110.621094 L 138.71875 145.046875 L 138.71875 204.371094 L 181.742188 204.371094 L 181.742188 150.082031 L 158.277344 166.429688 L 158.277344 200.484375 L 142.632812 200.484375 L 142.632812 147.050781 L 187.609375 115.386719 L 232.585938 147.050781 L 232.585938 200.484375 L 216.941406 200.484375 L 216.941406 152.824219 L 193.476562 136.476562 L 193.476562 204.371094 L 236.496094 204.371094 L 236.496094 145.046875 Z M 162.1875 168.453125 L 177.832031 157.566406 L 177.832031 200.484375 L 162.1875 200.484375 Z M 213.03125 200.484375 L 197.386719 200.484375 L 197.386719 143.960938 L 213.03125 154.84375 Z M 213.03125 200.484375 " fill-opacity="1" fill-rule="nonzero"/></g><g fill="#4d4b4b" fill-opacity="1"><g transform="translate(87.801561, 239.413681)"><g><path d="M 20.0625 -16.75 L 20.0625 0 L 16.703125 0 L 16.703125 -10.578125 L 12.140625 0 L 9.71875 0 L 5.1875 -10.53125 L 5.1875 0 L 1.796875 0 L 1.796875 -16.75 L 5.5625 -16.75 L 10.9375 -4.34375 L 16.3125 -16.75 Z M 20.0625 -16.75 "/></g></g></g><g fill="#4d4b4b" fill-opacity="1"><g transform="translate(112.065601, 239.413681)"><g><path d="M 12.796875 0 L 11.71875 -3.140625 L 5.1875 -3.140625 L 4.109375 0 L 0.53125 0 L 6.453125 -16.796875 L 10.46875 -16.796875 L 16.375 0 Z M 6.078125 -5.734375 L 10.84375 -5.734375 L 8.453125 -12.71875 Z M 6.078125 -5.734375 "/></g></g></g><g fill="#4d4b4b" fill-opacity="1"><g transform="translate(131.385633, 239.413681)"><g><path d="M 3.328125 -2.28125 C 1.679688 -3.894531 0.859375 -5.941406 0.859375 -8.421875 C 0.859375 -10.898438 1.6875 -12.945312 3.34375 -14.5625 C 5 -16.175781 7.03125 -16.984375 9.4375 -16.984375 C 11.257812 -16.984375 12.878906 -16.519531 14.296875 -15.59375 C 15.710938 -14.664062 16.722656 -13.363281 17.328125 -11.6875 L 13.265625 -11.6875 C 12.515625 -13.15625 11.238281 -13.890625 9.4375 -13.890625 C 7.914062 -13.890625 6.675781 -13.390625 5.71875 -12.390625 C 4.769531 -11.390625 4.296875 -10.0625 4.296875 -8.40625 C 4.296875 -6.75 4.769531 -5.421875 5.71875 -4.421875 C 6.675781 -3.421875 7.84375 -2.921875 9.21875 -2.921875 C 10.601562 -2.921875 11.691406 -3.257812 12.484375 -3.9375 C 13.285156 -4.625 13.78125 -5.546875 13.96875 -6.703125 L 8.40625 -6.703125 L 8.40625 -9.265625 L 17.59375 -9.265625 L 17.59375 -6.703125 C 17.300781 -4.867188 16.398438 -3.269531 14.890625 -1.90625 C 13.390625 -0.539062 11.5 0.140625 9.21875 0.140625 C 6.945312 0.140625 4.984375 -0.664062 3.328125 -2.28125 Z M 3.328125 -2.28125 "/></g></g></g><g fill="#4d4b4b" fill-opacity="1"><g transform="translate(152.24167, 239.413681)"><g><path d="M 1.796875 0 L 1.796875 -16.75 L 5.1875 -16.75 L 5.1875 0 Z M 1.796875 0 "/></g></g></g><g fill="#4d4b4b" fill-opacity="1"><g transform="translate(161.625676, 239.413681)"><g><path d="M 3.328125 -2.28125 C 1.679688 -3.894531 0.859375 -5.941406 0.859375 -8.421875 C 0.859375 -10.898438 1.6875 -12.945312 3.34375 -14.5625 C 5 -16.175781 7.03125 -16.984375 9.4375 -16.984375 C 11.257812 -16.984375 12.878906 -16.519531 14.296875 -15.59375 C 15.710938 -14.664062 16.722656 -13.363281 17.328125 -11.6875 L 13.265625 -11.6875 C 12.515625 -13.15625 11.238281 -13.890625 9.4375 -13.890625 C 7.914062 -13.890625 6.675781 -13.390625 5.71875 -12.390625 C 4.769531 -11.390625 4.296875 -10.0625 4.296875 -8.40625 C 4.296875 -6.75 4.769531 -5.421875 5.71875 -4.421875 C 6.675781 -3.421875 7.914062 -2.921875 9.4375 -2.921875 C 11.226562 -2.921875 12.503906 -3.660156 13.265625 -5.140625 L 17.328125 -5.140625 C 16.722656 -3.453125 15.710938 -2.148438 14.296875 -1.234375 C 12.878906 -0.316406 11.257812 0.140625 9.4375 0.140625 C 7.019531 0.140625 4.984375 -0.664062 3.328125 -2.28125 Z M 3.328125 -2.28125 "/></g></g></g><g fill="#4d4b4b" fill-opacity="1"><g transform="translate(182.481708, 239.413681)"><g><path d="M 5.1875 -6.671875 L 5.1875 0 L 1.796875 0 L 1.796875 -16.75 L 7.96875 -16.75 C 9.90625 -16.75 11.394531 -16.265625 12.4375 -15.296875 C 13.488281 -14.328125 14.015625 -13.132812 14.015625 -11.71875 C 14.015625 -10.65625 13.691406 -9.664062 13.046875 -8.75 C 12.410156 -7.84375 11.40625 -7.222656 10.03125 -6.890625 L 14.296875 0 L 10.296875 0 L 6.28125 -6.671875 Z M 5.1875 -14.15625 L 5.1875 -9.265625 L 7.96875 -9.265625 C 8.8125 -9.265625 9.457031 -9.484375 9.90625 -9.921875 C 10.351562 -10.359375 10.578125 -10.953125 10.578125 -11.703125 C 10.578125 -12.460938 10.351562 -13.0625 9.90625 -13.5 C 9.457031 -13.9375 8.8125 -14.15625 7.96875 -14.15625 Z M 5.1875 -14.15625 "/></g></g></g><g fill="#4d4b4b" fill-opacity="1"><g transform="translate(200.457731, 239.413681)"><g><path d="M 11.46875 -16.796875 L 11.46875 -14.203125 L 5.1875 -14.203125 L 5.1875 -9.8125 L 10.75 -9.8125 L 10.75 -7.21875 L 5.1875 -7.21875 L 5.1875 -2.59375 L 11.46875 -2.59375 L 11.46875 0 L 1.796875 0 L 1.796875 -16.796875 Z M 11.46875 -16.796875 "/></g></g></g><g fill="#4d4b4b" fill-opacity="1"><g transform="translate(215.985749, 239.413681)"><g><path d="M 12.765625 -16.796875 L 16.15625 -16.796875 L 16.15625 0 L 12.765625 0 L 5.1875 -11.609375 L 5.1875 0 L 1.796875 0 L 1.796875 -16.796875 L 5.1875 -16.796875 L 12.765625 -5.1875 Z M 12.765625 -16.796875 "/></g></g></g><g fill="#4d4b4b" fill-opacity="1"><g transform="translate(236.337783, 239.413681)"><g><path d="M 5.1875 -2.5625 L 7.484375 -2.5625 C 9.242188 -2.5625 10.613281 -3.082031 11.59375 -4.125 C 12.570312 -5.164062 13.0625 -6.570312 13.0625 -8.34375 C 13.0625 -10.125 12.570312 -11.535156 11.59375 -12.578125 C 10.613281 -13.617188 9.242188 -14.140625 7.484375 -14.140625 L 5.1875 -14.140625 Z M 7.484375 -16.75 C 10.171875 -16.75 12.34375 -15.976562 14 -14.4375 C 15.65625 -12.90625 16.484375 -10.875 16.484375 -8.34375 C 16.484375 -5.820312 15.65625 -3.800781 14 -2.28125 C 12.34375 -0.757812 10.171875 0 7.484375 0 L 1.796875 0 L 1.796875 -16.75 Z M 7.484375 -16.75 "/></g></g></g><g fill="#4d4b4b" fill-opacity="1"><g transform="translate(256.089815, 239.413681)"><g><path d="M 11.46875 -16.796875 L 11.46875 -14.203125 L 5.1875 -14.203125 L 5.1875 -9.8125 L 10.75 -9.8125 L 10.75 -7.21875 L 5.1875 -7.21875 L 5.1875 -2.59375 L 11.46875 -2.59375 L 11.46875 0 L 1.796875 0 L 1.796875 -16.796875 Z M 11.46875 -16.796875 "/></g></g></g><g fill="#4d4b4b" fill-opacity="1"><g transform="translate(271.617832, 239.413681)"><g><path d="M 5.1875 -6.671875 L 5.1875 0 L 1.796875 0 L 1.796875 -16.75 L 7.96875 -16.75 C 9.90625 -16.75 11.394531 -16.265625 12.4375 -15.296875 C 13.488281 -14.328125 14.015625 -13.132812 14.015625 -11.71875 C 14.015625 -10.65625 13.691406 -9.664062 13.046875 -8.75 C 12.410156 -7.84375 11.40625 -7.222656 10.03125 -6.890625 L 14.296875 0 L 10.296875 0 L 6.28125 -6.671875 Z M 5.1875 -14.15625 L 5.1875 -9.265625 L 7.96875 -9.265625 C 8.8125 -9.265625 9.457031 -9.484375 9.90625 -9.921875 C 10.351562 -10.359375 10.578125 -10.953125 10.578125 -11.703125 C 10.578125 -12.460938 10.351562 -13.0625 9.90625 -13.5 C 9.457031 -13.9375 8.8125 -14.15625 7.96875 -14.15625 Z M 5.1875 -14.15625 "/></g></g></g><g fill="#d6ad60" fill-opacity="1"><g transform="translate(59.388051, 260.413694)"><g><path d="M 5.984375 0 L 5.4375 -1.5625 L 2.234375 -1.5625 L 1.6875 0 L 0.375 0 L 3.109375 -7.65625 L 4.5625 -7.65625 L 7.296875 0 Z M 2.578125 -2.546875 L 5.09375 -2.546875 L 3.84375 -6.140625 Z M 2.578125 -2.546875 "/></g></g></g><g fill="#d6ad60" fill-opacity="1"><g transform="translate(70.349615, 260.413694)"><g><path d="M 2.078125 -3.109375 L 2.078125 0 L 0.828125 0 L 0.828125 -7.640625 L 3.46875 -7.640625 C 4.332031 -7.640625 5 -7.425781 5.46875 -7 C 5.9375 -6.570312 6.171875 -6.03125 6.171875 -5.375 C 6.171875 -4.851562 6.015625 -4.382812 5.703125 -3.96875 C 5.390625 -3.5625 4.910156 -3.296875 4.265625 -3.171875 L 6.296875 0 L 4.765625 0 L 2.84375 -3.109375 Z M 2.078125 -6.671875 L 2.078125 -4.078125 L 3.46875 -4.078125 C 3.945312 -4.078125 4.300781 -4.191406 4.53125 -4.421875 C 4.769531 -4.648438 4.890625 -4.96875 4.890625 -5.375 C 4.890625 -5.78125 4.769531 -6.097656 4.53125 -6.328125 C 4.300781 -6.554688 3.945312 -6.671875 3.46875 -6.671875 Z M 2.078125 -6.671875 "/></g></g></g><g fill="#d6ad60" fill-opacity="1"><g transform="translate(80.59669, 260.413694)"><g><path d="M 4.3125 0.0625 C 3.21875 0.0625 2.289062 -0.300781 1.53125 -1.03125 C 0.78125 -1.769531 0.40625 -2.703125 0.40625 -3.828125 C 0.40625 -4.960938 0.78125 -5.898438 1.53125 -6.640625 C 2.289062 -7.378906 3.21875 -7.75 4.3125 -7.75 C 5.125 -7.75 5.847656 -7.546875 6.484375 -7.140625 C 7.117188 -6.742188 7.578125 -6.175781 7.859375 -5.4375 L 6.359375 -5.4375 C 5.941406 -6.207031 5.257812 -6.59375 4.3125 -6.59375 C 3.539062 -6.59375 2.910156 -6.335938 2.421875 -5.828125 C 1.929688 -5.328125 1.6875 -4.660156 1.6875 -3.828125 C 1.6875 -2.992188 1.929688 -2.320312 2.421875 -1.8125 C 2.910156 -1.3125 3.539062 -1.0625 4.3125 -1.0625 C 5.257812 -1.0625 5.941406 -1.445312 6.359375 -2.21875 L 7.859375 -2.21875 C 7.578125 -1.488281 7.117188 -0.925781 6.484375 -0.53125 C 5.847656 -0.132812 5.125 0.0625 4.3125 0.0625 Z M 4.3125 0.0625 "/></g></g></g><g fill="#d6ad60" fill-opacity="1"><g transform="translate(92.393674, 260.413694)"><g><path d="M 5.671875 -7.640625 L 6.9375 -7.640625 L 6.9375 0 L 5.671875 0 L 5.671875 -3.375 L 2.078125 -3.375 L 2.078125 0 L 0.828125 0 L 0.828125 -7.640625 L 2.078125 -7.640625 L 2.078125 -4.34375 L 5.671875 -4.34375 Z M 5.671875 -7.640625 "/></g></g></g><g fill="#d6ad60" fill-opacity="1"><g transform="translate(103.443184, 260.413694)"><g><path d="M 0.828125 0 L 0.828125 -7.640625 L 2.078125 -7.640625 L 2.078125 0 Z M 0.828125 0 "/></g></g></g><g fill="#d6ad60" fill-opacity="1"><g transform="translate(109.645115, 260.413694)"><g><path d="M 0.421875 -6.671875 L 0.421875 -7.640625 L 5.765625 -7.640625 L 5.765625 -6.671875 L 3.734375 -6.671875 L 3.734375 0 L 2.46875 0 L 2.46875 -6.671875 Z M 0.421875 -6.671875 "/></g></g></g><g fill="#d6ad60" fill-opacity="1"><g transform="translate(119.144717, 260.413694)"><g><path d="M 5.046875 -7.65625 L 5.046875 -6.671875 L 2.078125 -6.671875 L 2.078125 -4.359375 L 4.71875 -4.359375 L 4.71875 -3.390625 L 2.078125 -3.390625 L 2.078125 -0.984375 L 5.046875 -0.984375 L 5.046875 0 L 0.828125 0 L 0.828125 -7.65625 Z M 5.046875 -7.65625 "/></g></g></g><g fill="#d6ad60" fill-opacity="1"><g transform="translate(128.204627, 260.413694)"><g><path d="M 4.3125 0.0625 C 3.21875 0.0625 2.289062 -0.300781 1.53125 -1.03125 C 0.78125 -1.769531 0.40625 -2.703125 0.40625 -3.828125 C 0.40625 -4.960938 0.78125 -5.898438 1.53125 -6.640625 C 2.289062 -7.378906 3.21875 -7.75 4.3125 -7.75 C 5.125 -7.75 5.847656 -7.546875 6.484375 -7.140625 C 7.117188 -6.742188 7.578125 -6.175781 7.859375 -5.4375 L 6.359375 -5.4375 C 5.941406 -6.207031 5.257812 -6.59375 4.3125 -6.59375 C 3.539062 -6.59375 2.910156 -6.335938 2.421875 -5.828125 C 1.929688 -5.328125 1.6875 -4.660156 1.6875 -3.828125 C 1.6875 -2.992188 1.929688 -2.320312 2.421875 -1.8125 C 2.910156 -1.3125 3.539062 -1.0625 4.3125 -1.0625 C 5.257812 -1.0625 5.941406 -1.445312 6.359375 -2.21875 L 7.859375 -2.21875 C 7.578125 -1.488281 7.117188 -0.925781 6.484375 -0.53125 C 5.847656 -0.132812 5.125 0.0625 4.3125 0.0625 Z M 4.3125 0.0625 "/></g></g></g><g fill="#d6ad60" fill-opacity="1"><g transform="translate(140.001608, 260.413694)"><g><path d="M 0.421875 -6.671875 L 0.421875 -7.640625 L 5.765625 -7.640625 L 5.765625 -6.671875 L 3.734375 -6.671875 L 3.734375 0 L 2.46875 0 L 2.46875 -6.671875 Z M 0.421875 -6.671875 "/></g></g></g><g fill="#d6ad60" fill-opacity="1"><g transform="translate(149.50121, 260.413694)"><g><path d="M 0.8125 -2.796875 L 0.8125 -7.640625 L 2.0625 -7.640625 L 2.0625 -2.796875 C 2.0625 -2.210938 2.210938 -1.773438 2.515625 -1.484375 C 2.828125 -1.191406 3.253906 -1.046875 3.796875 -1.046875 C 4.347656 -1.046875 4.773438 -1.191406 5.078125 -1.484375 C 5.378906 -1.773438 5.53125 -2.210938 5.53125 -2.796875 L 5.53125 -7.640625 L 6.78125 -7.640625 L 6.78125 -2.796875 C 6.78125 -1.867188 6.492188 -1.15625 5.921875 -0.65625 C 5.347656 -0.164062 4.632812 0.078125 3.78125 0.078125 C 2.925781 0.078125 2.21875 -0.164062 1.65625 -0.65625 C 1.09375 -1.144531 0.8125 -1.859375 0.8125 -2.796875 Z M 0.8125 -2.796875 "/></g></g></g><g fill="#d6ad60" fill-opacity="1"><g transform="translate(160.38584, 260.413694)"><g><path d="M 2.078125 -3.109375 L 2.078125 0 L 0.828125 0 L 0.828125 -7.640625 L 3.46875 -7.640625 C 4.332031 -7.640625 5 -7.425781 5.46875 -7 C 5.9375 -6.570312 6.171875 -6.03125 6.171875 -5.375 C 6.171875 -4.851562 6.015625 -4.382812 5.703125 -3.96875 C 5.390625 -3.5625 4.910156 -3.296875 4.265625 -3.171875 L 6.296875 0 L 4.765625 0 L 2.84375 -3.109375 Z M 2.078125 -6.671875 L 2.078125 -4.078125 L 3.46875 -4.078125 C 3.945312 -4.078125 4.300781 -4.191406 4.53125 -4.421875 C 4.769531 -4.648438 4.890625 -4.96875 4.890625 -5.375 C 4.890625 -5.78125 4.769531 -6.097656 4.53125 -6.328125 C 4.300781 -6.554688 3.945312 -6.671875 3.46875 -6.671875 Z M 2.078125 -6.671875 "/></g></g></g><g fill="#d6ad60" fill-opacity="1"><g transform="translate(170.632913, 260.413694)"><g><path d="M 5.984375 0 L 5.4375 -1.5625 L 2.234375 -1.5625 L 1.6875 0 L 0.375 0 L 3.109375 -7.65625 L 4.5625 -7.65625 L 7.296875 0 Z M 2.578125 -2.546875 L 5.09375 -2.546875 L 3.84375 -6.140625 Z M 2.578125 -2.546875 "/></g></g></g><g fill="#d6ad60" fill-opacity="1"><g transform="translate(181.594476, 260.413694)"><g><path d="M 0.828125 -7.640625 L 2.078125 -7.640625 L 2.078125 -0.953125 L 4.65625 -0.953125 L 4.65625 0 L 0.828125 0 Z M 0.828125 -7.640625 "/></g></g></g><g fill="#d6ad60" fill-opacity="1"><g transform="translate(189.77501, 260.413694)"><g/></g></g><g fill="#d6ad60" fill-opacity="1"><g transform="translate(196.372665, 260.413694)"><g><path d="M 3.09375 0 L 0.203125 -7.640625 L 1.546875 -7.640625 L 3.8125 -1.296875 L 6.078125 -7.640625 L 7.40625 -7.640625 L 4.546875 0 Z M 3.09375 0 "/></g></g></g><g fill="#d6ad60" fill-opacity="1"><g transform="translate(207.301257, 260.413694)"><g><path d="M 0.828125 0 L 0.828125 -7.640625 L 2.078125 -7.640625 L 2.078125 0 Z M 0.828125 0 "/></g></g></g><g fill="#d6ad60" fill-opacity="1"><g transform="translate(213.503188, 260.413694)"><g><path d="M 3.203125 -6.71875 C 2.828125 -6.71875 2.519531 -6.625 2.28125 -6.4375 C 2.050781 -6.25 1.9375 -5.972656 1.9375 -5.609375 C 1.9375 -5.242188 2.070312 -4.960938 2.34375 -4.765625 C 2.625 -4.578125 2.960938 -4.4375 3.359375 -4.34375 C 3.753906 -4.257812 4.148438 -4.160156 4.546875 -4.046875 C 4.941406 -3.941406 5.28125 -3.734375 5.5625 -3.421875 C 5.84375 -3.109375 5.984375 -2.671875 5.984375 -2.109375 C 5.984375 -1.546875 5.742188 -1.039062 5.265625 -0.59375 C 4.785156 -0.144531 4.144531 0.078125 3.34375 0.078125 C 2.550781 0.078125 1.90625 -0.109375 1.40625 -0.484375 C 0.90625 -0.859375 0.65625 -1.375 0.65625 -2.03125 L 2 -2.03125 C 2.03125 -1.695312 2.15625 -1.429688 2.375 -1.234375 C 2.59375 -1.035156 2.914062 -0.9375 3.34375 -0.9375 C 3.769531 -0.9375 4.101562 -1.046875 4.34375 -1.265625 C 4.59375 -1.484375 4.71875 -1.742188 4.71875 -2.046875 C 4.71875 -2.347656 4.640625 -2.582031 4.484375 -2.75 C 4.335938 -2.914062 4.144531 -3.039062 3.90625 -3.125 C 3.664062 -3.207031 3.398438 -3.28125 3.109375 -3.34375 C 2.828125 -3.414062 2.539062 -3.492188 2.25 -3.578125 C 1.96875 -3.671875 1.707031 -3.785156 1.46875 -3.921875 C 1.226562 -4.066406 1.03125 -4.269531 0.875 -4.53125 C 0.726562 -4.800781 0.65625 -5.128906 0.65625 -5.515625 C 0.65625 -6.179688 0.894531 -6.71875 1.375 -7.125 C 1.851562 -7.539062 2.476562 -7.75 3.25 -7.75 C 4.019531 -7.75 4.632812 -7.570312 5.09375 -7.21875 C 5.550781 -6.863281 5.804688 -6.351562 5.859375 -5.6875 L 4.46875 -5.6875 C 4.4375 -5.976562 4.3125 -6.222656 4.09375 -6.421875 C 3.875 -6.617188 3.578125 -6.71875 3.203125 -6.71875 Z M 3.203125 -6.71875 "/></g></g></g><g fill="#d6ad60" fill-opacity="1"><g transform="translate(223.442473, 260.413694)"><g><path d="M 0.8125 -2.796875 L 0.8125 -7.640625 L 2.0625 -7.640625 L 2.0625 -2.796875 C 2.0625 -2.210938 2.210938 -1.773438 2.515625 -1.484375 C 2.828125 -1.191406 3.253906 -1.046875 3.796875 -1.046875 C 4.347656 -1.046875 4.773438 -1.191406 5.078125 -1.484375 C 5.378906 -1.773438 5.53125 -2.210938 5.53125 -2.796875 L 5.53125 -7.640625 L 6.78125 -7.640625 L 6.78125 -2.796875 C 6.78125 -1.867188 6.492188 -1.15625 5.921875 -0.65625 C 5.347656 -0.164062 4.632812 0.078125 3.78125 0.078125 C 2.925781 0.078125 2.21875 -0.164062 1.65625 -0.65625 C 1.09375 -1.144531 0.8125 -1.859375 0.8125 -2.796875 Z M 0.8125 -2.796875 "/></g></g></g><g fill="#d6ad60" fill-opacity="1"><g transform="translate(234.327096, 260.413694)"><g><path d="M 5.984375 0 L 5.4375 -1.5625 L 2.234375 -1.5625 L 1.6875 0 L 0.375 0 L 3.109375 -7.65625 L 4.5625 -7.65625 L 7.296875 0 Z M 2.578125 -2.546875 L 5.09375 -2.546875 L 3.84375 -6.140625 Z M 2.578125 -2.546875 "/></g></g></g><g fill="#d6ad60" fill-opacity="1"><g transform="translate(245.288659, 260.413694)"><g><path d="M 0.828125 -7.640625 L 2.078125 -7.640625 L 2.078125 -0.953125 L 4.65625 -0.953125 L 4.65625 0 L 0.828125 0 Z M 0.828125 -7.640625 "/></g></g></g><g fill="#d6ad60" fill-opacity="1"><g transform="translate(253.469193, 260.413694)"><g><path d="M 0.828125 0 L 0.828125 -7.640625 L 2.078125 -7.640625 L 2.078125 0 Z M 0.828125 0 "/></g></g></g><g fill="#d6ad60" fill-opacity="1"><g transform="translate(259.671135, 260.413694)"><g><path d="M 5.59375 -7.640625 L 5.59375 -6.671875 L 1.984375 -0.984375 L 5.59375 -0.984375 L 5.59375 0 L 0.546875 0 L 0.546875 -0.984375 L 4.140625 -6.671875 L 0.546875 -6.671875 L 0.546875 -7.640625 Z M 5.59375 -7.640625 "/></g></g></g><g fill="#d6ad60" fill-opacity="1"><g transform="translate(269.104796, 260.413694)"><g><path d="M 5.984375 0 L 5.4375 -1.5625 L 2.234375 -1.5625 L 1.6875 0 L 0.375 0 L 3.109375 -7.65625 L 4.5625 -7.65625 L 7.296875 0 Z M 2.578125 -2.546875 L 5.09375 -2.546875 L 3.84375 -6.140625 Z M 2.578125 -2.546875 "/></g></g></g><g fill="#d6ad60" fill-opacity="1"><g transform="translate(280.066359, 260.413694)"><g><path d="M 0.421875 -6.671875 L 0.421875 -7.640625 L 5.765625 -7.640625 L 5.765625 -6.671875 L 3.734375 -6.671875 L 3.734375 0 L 2.46875 0 L 2.46875 -6.671875 Z M 0.421875 -6.671875 "/></g></g></g><g fill="#d6ad60" fill-opacity="1"><g transform="translate(289.565961, 260.413694)"><g><path d="M 0.828125 0 L 0.828125 -7.640625 L 2.078125 -7.640625 L 2.078125 0 Z M 0.828125 0 "/></g></g></g><g fill="#d6ad60" fill-opacity="1"><g transform="translate(295.767904, 260.413694)"><g><path d="M 4.3125 -1.0625 C 5.082031 -1.0625 5.710938 -1.3125 6.203125 -1.8125 C 6.691406 -2.320312 6.9375 -2.992188 6.9375 -3.828125 C 6.9375 -4.660156 6.691406 -5.328125 6.203125 -5.828125 C 5.710938 -6.335938 5.082031 -6.59375 4.3125 -6.59375 C 3.539062 -6.59375 2.910156 -6.335938 2.421875 -5.828125 C 1.929688 -5.328125 1.6875 -4.660156 1.6875 -3.828125 C 1.6875 -2.992188 1.929688 -2.320312 2.421875 -1.8125 C 2.910156 -1.3125 3.539062 -1.0625 4.3125 -1.0625 Z M 4.3125 0.078125 C 3.21875 0.078125 2.289062 -0.289062 1.53125 -1.03125 C 0.78125 -1.769531 0.40625 -2.703125 0.40625 -3.828125 C 0.40625 -4.960938 0.78125 -5.898438 1.53125 -6.640625 C 2.289062 -7.378906 3.21875 -7.75 4.3125 -7.75 C 5.414062 -7.75 6.34375 -7.378906 7.09375 -6.640625 C 7.84375 -5.898438 8.21875 -4.960938 8.21875 -3.828125 C 8.21875 -2.703125 7.84375 -1.769531 7.09375 -1.03125 C 6.34375 -0.289062 5.414062 0.078125 4.3125 0.078125 Z M 4.3125 0.078125 "/></g></g></g><g fill="#d6ad60" fill-opacity="1"><g transform="translate(307.685803, 260.413694)"><g><path d="M 5.859375 -7.65625 L 7.109375 -7.65625 L 7.109375 0 L 5.859375 0 L 2.078125 -5.703125 L 2.078125 0 L 0.828125 0 L 0.828125 -7.65625 L 2.078125 -7.65625 L 5.859375 -1.953125 Z M 5.859375 -7.65625 "/></g></g></g></svg>