<?xml version="1.0" ?><!DOCTYPE svg  PUBLIC '-//W3C//DTD SVG 1.1//EN'  'http://www.w3.org/Graphics/SVG/1.1/DTD/svg11.dtd'><svg height="50px" id="Livello_1" style="enable-background:new 0 0 50 50;" version="1.1" viewBox="0 0 50 50" width="50px" xml:space="preserve" xmlns="http://www.w3.org/2000/svg" xmlns:xlink="http://www.w3.org/1999/xlink"><g><path d="M25.213,3.567c5.853,0.062,11.158,2.5,15.06,6.342c3.842,3.902,6.158,9.207,6.158,15.061c0,5.914-2.377,11.28-6.219,15.183   c-3.902,3.902-9.268,6.28-15.182,6.28c-5.915,0-11.28-2.378-15.183-6.28s-6.28-9.269-6.28-15.183   c0-5.854,2.378-11.158,6.219-15.061c3.842-3.842,9.146-6.28,15-6.342H25.213z M13.018,17.531V32.47h6.708   c0.731,0,1.463-0.062,2.134-0.183c0.671-0.184,1.22-0.366,1.646-0.793c0.914-0.671,1.768-1.891,1.768-3.537   c0-1.523-0.671-2.865-2.316-3.536c0.549-0.244,0.914-0.549,1.098-0.854c0.487-0.549,0.731-1.28,0.731-2.195   c0-0.854-0.244-1.585-0.671-2.256c-0.793-1.036-2.134-1.585-3.902-1.585H13.018z M16.433,23.385v-3.293h2.805   c0.731,0,1.28,0.061,1.769,0.244c0.549,0.244,0.792,0.731,0.792,1.402c0,0.609-0.183,1.036-0.609,1.28s-0.976,0.366-1.585,0.366   H16.433z M16.433,29.848v-3.963h3.231c1.402,0,2.439,0.305,2.439,1.829c0,1.951-1.098,2.134-2.5,2.134H16.433z M33.994,28.872   c-0.123,0.305-0.305,0.549-0.549,0.731c-0.428,0.305-0.977,0.488-1.586,0.488c-1.219,0-2.621-0.549-2.621-2.684h7.805   c0-0.914-0.062-1.585-0.123-2.072c-0.244-1.524-1.158-3.049-2.682-3.842c-0.793-0.305-1.586-0.487-2.5-0.487   c-1.586,0-2.867,0.487-3.842,1.463c-0.977,1.036-1.463,2.5-1.463,4.269c0,3.963,2.5,5.609,5.365,5.609   c1.768,0,3.109-0.488,4.023-1.524c0.672-0.671,0.977-1.342,1.037-1.951H33.994z M28.689,19.665h5.975v-1.524h-5.975V19.665z    M29.299,25.579c0.244-1.28,0.975-2.256,2.439-2.256c0.609,0,1.158,0.183,1.646,0.549c0.426,0.427,0.67,1.037,0.73,1.707H29.299z"/></g></svg>
